# xmcd CD database file
#
# Track frame offsets:
#	150
#	18977
#	32535
#	47397
#	61410
#	77015
#	103432
#	118432
#	133057
#	147235
#	162847
#	185395
#	207992
#	229272
#
# Disc length: 3545 seconds
#
# Revision: 0
# Processed by: cddbd v1.5.1PL0 Copyright (c) Steve Scherf et al.
# Submitted via: CDex 1.51
#
DISCID=c40dd70e
DTITLE=仲田正江とでいご座一行 - でぃぐぅ
DYEAR=1998
DGENRE=Other
TTITLE0=安里屋ユンタ
TTITLE1=豊年音頭
TTITLE2=よろしくございます
TTITLE3=島ぬ童子達
TTITLE4=てぃんさぐぬ花
TTITLE5=姫百合の歌
TTITLE6=えんどうの花
TTITLE7=風便り
TTITLE8=南国育ち
TTITLE9=打ち明き小
TTITLE10=南国情話
TTITLE11=あめりか通り
TTITLE12=花 - すべての人の心に花を
TTITLE13=黄金の花
EXTD=YEAR: 1998
EXTT0=
EXTT1=
EXTT2=
EXTT3=
EXTT4=
EXTT5=
EXTT6=
EXTT7=
EXTT8=
EXTT9=
EXTT10=
EXTT11=
EXTT12=
EXTT13=
PLAYORDER=
